<svg xmlns="http://www.w3.org/2000/svg" xmlns:xlink="http://www.w3.org/1999/xlink" viewBox="0 0 257.03 212.24"><defs><style>.cls-1{fill:none;}.cls-2{fill:#777;}.cls-3{fill:#a8a8a8;}.cls-4{fill:#ed4c4c;}.cls-5{clip-path:url(#clip-path);}.cls-6{fill:#fff;}.cls-7{fill:#232122;}.cls-8{fill:#d1e8e4;}.cls-9{fill:#161415;}.cls-10{fill:#ff8860;}.cls-11{fill:#3a3739;}.cls-12{fill:#2b2b2b;}.cls-13{clip-path:url(#clip-path-2);}.cls-14{fill:#ededed;}.cls-15{fill:#ffc2c2;}</style><clipPath id="clip-path" transform="translate(0 42.12)"><rect class="cls-1" x="47.92" y="6.1" width="140.93" height="80.03" rx="6.29"/></clipPath><clipPath id="clip-path-2" transform="translate(0 42.12)"><circle class="cls-1" cx="58.11" cy="82.87" r="58.11" transform="translate(-40.3 106.49) rotate(-68.46)"/></clipPath></defs><g id="Layer_2" data-name="Layer 2"><g id="Layer_1-2" data-name="Layer 1"><rect class="cls-2" x="98.08" y="132.47" width="40.62" height="15.13"/><rect class="cls-3" x="40.51" y="42.12" width="155.74" height="92.24" rx="7.24"/><rect class="cls-4" x="47.92" y="48.22" width="140.93" height="80.03" rx="6.29"/><path class="cls-3" d="M148,110.61c0,2.32-3,4.2-6.63,4.2h-46c-3.66,0-6.63-1.88-6.63-4.2v-.93c0-2.32,3-4.2,6.63-4.2h46.05c3.66,0,6.63,1.88,6.63,4.2Z" transform="translate(0 42.12)"/><g class="cls-5"><rect class="cls-6" x="149.97" y="40.4" width="2.34" height="103.8"/><rect class="cls-6" x="149.96" y="-55.72" width="2.34" height="211.79" transform="translate(-4.84 124.41) rotate(-30)"/><rect class="cls-6" x="149.96" y="-55.72" width="2.34" height="211.79" transform="translate(32.11 198.09) rotate(-60)"/><rect class="cls-6" x="45.24" y="91.12" width="211.79" height="2.34"/><rect class="cls-6" x="45.24" y="49.01" width="211.79" height="2.34" transform="translate(-4.84 124.4) rotate(-30)"/><rect class="cls-6" x="45.24" y="49.01" width="211.79" height="2.34" transform="translate(32.12 198.11) rotate(-60.01)"/><path class="cls-6" d="M122.42,32.21c-2.66,0-5.78-.95-9.68-2.85l1-2.11c7.54,3.67,11.32,3.51,15-.67,3.35-3.81,3.21-7.65-.49-13.71l2-1.22c3,4.89,5.36,10.67.26,16.48C128.1,30.87,125.58,32.21,122.42,32.21Z" transform="translate(0 42.12)"/><path class="cls-6" d="M107.48,51.34,107.32,49c8.36-.59,11.55-2.63,12.63-8.07,1-5-1-8.23-7.28-11.63l1.12-2.05c5,2.74,10,6.56,8.46,14.14C120.94,48,116.93,50.67,107.48,51.34Z" transform="translate(0 42.12)"/><path class="cls-6" d="M113.92,73l-1.31-1.94c7-4.69,8.69-8.05,6.91-13.31-1.63-4.8-5-6.6-12.12-6.42L107.34,49c5.72-.14,11.92.7,14.4,8C123.89,63.36,121.77,67.69,113.92,73Z" transform="translate(0 42.12)"/><path class="cls-6" d="M188.46,73.06c-5-2.74-10-6.56-8.46-14.14,1.31-6.58,5.31-9.28,14.77-10l.16,2.34c-8.36.59-11.55,2.62-12.64,8.06-1,5,1.05,8.24,7.29,11.63Z" transform="translate(0 42.12)"/><path class="cls-6" d="M193.83,51.34c-5.41,0-11-1.17-13.32-8-2.15-6.36,0-10.69,7.82-16l1.31,1.94c-6.95,4.69-8.69,8-6.91,13.3,1.62,4.81,5,6.6,12.12,6.43l.06,2.34Z" transform="translate(0 42.12)"/><path class="cls-6" d="M180.45,32.51a10.82,10.82,0,0,1-7.3-3c-5.05-4.43-5.38-9.24-1.23-17.76l2.11,1c-3.67,7.54-3.51,11.32.66,15,3.82,3.35,7.66,3.21,13.72-.49l1.22,2C186.81,31,183.7,32.51,180.45,32.51Z" transform="translate(0 42.12)"/><path class="cls-6" d="M162.55,21.56a13.45,13.45,0,0,1-2.66-.28C153.3,20,150.61,16,149.94,6.51l2.34-.16c.59,8.36,2.62,11.55,8.06,12.64,5,1,8.24-1,11.63-7.29L174,12.82C171.63,17.22,168.4,21.56,162.55,21.56Z" transform="translate(0 42.12)"/><path class="cls-6" d="M140,21.56c-4.21,0-7.67-2.66-11.69-8.61l1.94-1.31c4.69,7,8.05,8.69,13.3,6.91,4.81-1.63,6.61-5,6.43-12.12l2.34-.06c.15,5.73-.69,11.92-8,14.4A13.37,13.37,0,0,1,140,21.56Z" transform="translate(0 42.12)"/><path class="cls-6" d="M150,94c-.59-8.36-2.63-11.55-8.07-12.64-5-1-8.23,1.05-11.63,7.29l-2.05-1.12c2.74-5,6.56-10,14.14-8.46,6.58,1.31,9.28,5.31,9.94,14.77Z" transform="translate(0 42.12)"/><path class="cls-6" d="M150,93.94c-.14-5.73.7-11.92,8-14.4,6.36-2.16,10.69,0,16,7.82L172,88.67c-4.7-7-8.05-8.69-13.31-6.91-4.8,1.63-6.6,5-6.43,12.12Z" transform="translate(0 42.12)"/><path class="cls-6" d="M130.32,88.54l-2.1-1c3.67-7.54,3.5-11.32-.67-15-3.81-3.35-7.65-3.21-13.71.49l-1.22-2c4.89-3,10.67-5.36,16.48-.25C134.14,75.21,134.47,80,130.32,88.54Z" transform="translate(0 42.12)"/><path class="cls-6" d="M172,88.66c-3-4.89-5.35-10.67-.25-16.48,4.42-5,9.24-5.38,17.76-1.23l-1,2.11c-7.53-3.67-11.32-3.51-15,.66-3.35,3.82-3.21,7.66.49,13.72Z" transform="translate(0 42.12)"/></g><path class="cls-7" d="M152,53.33c1.69,0,5.88-3.39,7.32-9s-1.67-11-8.06-11c-5.52,0-8.77,5.37-7.33,11s5.64,9,7.33,9Z" transform="translate(0 42.12)"/><path class="cls-4" d="M146,39.74l3.53,3.67a.92.92,0,0,1-.29,1.48,2.51,2.51,0,0,1-2.31,0C144.17,43.32,146,39.74,146,39.74Z" transform="translate(0 42.12)"/><path class="cls-4" d="M157.15,39.74l-3.53,3.67a.91.91,0,0,0,.28,1.48,2.51,2.51,0,0,0,2.31,0C158.94,43.32,157.15,39.74,157.15,39.74Z" transform="translate(0 42.12)"/><path class="cls-4" d="M150.5,46.52l.52-.68a.21.21,0,0,1,.37.11l.07.85a.21.21,0,0,1-.26.22l-.59-.17A.22.22,0,0,1,150.5,46.52Z" transform="translate(0 42.12)"/><path class="cls-4" d="M147.57,47.27H148a.36.36,0,0,1,.25.62l-.33.31a.21.21,0,0,1-.34-.07l-.22-.57A.2.2,0,0,1,147.57,47.27Z" transform="translate(0 42.12)"/><path class="cls-4" d="M148.15,48.38l.41-.21a.36.36,0,0,1,.49.46l-.16.42a.21.21,0,0,1-.34.08l-.44-.41A.21.21,0,0,1,148.15,48.38Z" transform="translate(0 42.12)"/><path class="cls-4" d="M149.14,49.2l.32-.33a.36.36,0,0,1,.61.27l0,.46a.21.21,0,0,1-.29.18l-.55-.25A.2.2,0,0,1,149.14,49.2Z" transform="translate(0 42.12)"/><path class="cls-4" d="M150.31,49.61l.26-.37a.36.36,0,0,1,.65.16l.05.45a.21.21,0,0,1-.25.23l-.59-.15A.2.2,0,0,1,150.31,49.61Z" transform="translate(0 42.12)"/><path class="cls-4" d="M155.47,47.27H155a.36.36,0,0,0-.25.62l.33.31a.2.2,0,0,0,.33-.07l.23-.57A.2.2,0,0,0,155.47,47.27Z" transform="translate(0 42.12)"/><path class="cls-4" d="M154.9,48.38l-.41-.21a.37.37,0,0,0-.5.46l.17.42a.2.2,0,0,0,.33.08l.45-.41A.21.21,0,0,0,154.9,48.38Z" transform="translate(0 42.12)"/><path class="cls-4" d="M153.91,49.2l-.32-.33a.36.36,0,0,0-.62.27l0,.46a.21.21,0,0,0,.29.18l.55-.25A.2.2,0,0,0,153.91,49.2Z" transform="translate(0 42.12)"/><path class="cls-4" d="M152.74,49.61l-.26-.37a.36.36,0,0,0-.65.16l-.06.45a.22.22,0,0,0,.26.23l.59-.15A.21.21,0,0,0,152.74,49.61Z" transform="translate(0 42.12)"/><path class="cls-4" d="M152.76,46.52l-.52-.68a.21.21,0,0,0-.37.11l-.07.85a.21.21,0,0,0,.26.22l.59-.17A.22.22,0,0,0,152.76,46.52Z" transform="translate(0 42.12)"/><path class="cls-7" d="M147.77,35.13a37.49,37.49,0,0,0-2.34-4.26c-.9-.09-4.43-.08-7.58,0l0-1.75c7.66-.16,8.18.06,8.37.14s.84.36,3.16,5.11Z" transform="translate(0 42.12)"/><polygon class="cls-7" points="134.34 82.63 133.52 81.08 140.92 77.18 146.16 79.25 145.52 80.88 141.03 79.11 134.34 82.63"/><polygon class="cls-7" points="133.41 91.79 132.14 90.59 138.37 84 144.73 84.83 144.51 86.56 139.03 85.85 133.41 91.79"/><polygon class="cls-7" points="140.24 101.55 138.5 101.34 139.79 90.69 146.68 89.02 147.09 90.72 141.38 92.1 140.24 101.55"/><path class="cls-7" d="M147.05,30.06a1.21,1.21,0,1,1-1.21-1.21A1.21,1.21,0,0,1,147.05,30.06Z" transform="translate(0 42.12)"/><path class="cls-7" d="M142.31,36a1.22,1.22,0,1,1-1.21-1.21A1.21,1.21,0,0,1,142.31,36Z" transform="translate(0 42.12)"/><circle class="cls-7" cx="138.7" cy="84.93" r="1.21"/><path class="cls-7" d="M141.79,49.28a1.21,1.21,0,1,1-1.21-1.21A1.21,1.21,0,0,1,141.79,49.28Z" transform="translate(0 42.12)"/><path class="cls-7" d="M139,30a1.22,1.22,0,1,1-1.21-1.21A1.21,1.21,0,0,1,139,30Z" transform="translate(0 42.12)"/><path class="cls-7" d="M135.14,39.74a1.21,1.21,0,1,1-1.21-1.21A1.21,1.21,0,0,1,135.14,39.74Z" transform="translate(0 42.12)"/><path class="cls-7" d="M134.37,49.28a1.21,1.21,0,1,1-1.21-1.21A1.21,1.21,0,0,1,134.37,49.28Z" transform="translate(0 42.12)"/><path class="cls-7" d="M140.58,59.33a1.21,1.21,0,1,1-1.21-1.22A1.21,1.21,0,0,1,140.58,59.33Z" transform="translate(0 42.12)"/><path class="cls-7" d="M156,35.13l-1.57-.77c2.33-4.75,2.89-5,3.16-5.11s.72-.3,8.38-.14l0,1.75c-3.16-.07-6.69-.08-7.58,0A38.81,38.81,0,0,0,156,35.13Z" transform="translate(0 42.12)"/><polygon class="cls-7" points="169.41 82.63 162.72 79.11 158.23 80.88 157.59 79.25 162.83 77.18 170.22 81.08 169.41 82.63"/><polygon class="cls-7" points="170.33 91.79 164.72 85.85 159.24 86.56 159.01 84.83 165.38 84 171.6 90.59 170.33 91.79"/><polygon class="cls-7" points="163.51 101.55 162.36 92.1 156.65 90.72 157.06 89.02 163.95 90.69 165.24 101.34 163.51 101.55"/><path class="cls-7" d="M156.7,30.06a1.21,1.21,0,1,0,1.21-1.21A1.21,1.21,0,0,0,156.7,30.06Z" transform="translate(0 42.12)"/><path class="cls-7" d="M161.44,36a1.21,1.21,0,1,0,1.21-1.21A1.21,1.21,0,0,0,161.44,36Z" transform="translate(0 42.12)"/><path class="cls-7" d="M163.84,42.81a1.21,1.21,0,1,0,1.21-1.21A1.21,1.21,0,0,0,163.84,42.81Z" transform="translate(0 42.12)"/><path class="cls-7" d="M162,49.28a1.21,1.21,0,1,0,1.21-1.21A1.21,1.21,0,0,0,162,49.28Z" transform="translate(0 42.12)"/><path class="cls-7" d="M164.78,30A1.21,1.21,0,1,0,166,28.81,1.21,1.21,0,0,0,164.78,30Z" transform="translate(0 42.12)"/><path class="cls-7" d="M168.6,39.74a1.22,1.22,0,1,0,1.21-1.21A1.21,1.21,0,0,0,168.6,39.74Z" transform="translate(0 42.12)"/><path class="cls-7" d="M169.37,49.28a1.21,1.21,0,1,0,1.21-1.21A1.21,1.21,0,0,0,169.37,49.28Z" transform="translate(0 42.12)"/><path class="cls-7" d="M163.16,59.33a1.21,1.21,0,1,0,1.21-1.22A1.22,1.22,0,0,0,163.16,59.33Z" transform="translate(0 42.12)"/><circle class="cls-8" cx="58.11" cy="82.87" r="58.11" transform="translate(-40.3 148.61) rotate(-68.46)"/><path class="cls-7" d="M26.6,93l26.76,18L91.22,72.91c3.17-3.86,4-14.91-.09-17.75L65,36.87C60.9,34,53.15,35.57,49.13,38.53,42.37,43.51,26.6,93,26.6,93Z" transform="translate(0 42.12)"/><path class="cls-9" d="M61,35.12l1.49,31L91.66,56.07S94.84,48.79,87,39.7s-20.54-8.45-20.54-8.45Z" transform="translate(0 42.12)"/><path class="cls-10" d="M77.56,53.39c-7.84,1.5-8.83-5-9.21-13.09S74,24.35,81.85,22.85s14.5,3.87,14.89,12S85.39,51.89,77.56,53.39Z" transform="translate(0 42.12)"/><path class="cls-11" d="M62.45,66.15a61,61,0,0,0,3.4-19.7c0-5.52-.22-13-.22-13L61,35.12Z" transform="translate(0 42.12)"/><path class="cls-11" d="M62.34,66.07a61.2,61.2,0,0,1,17.1-10.35c5.13-2,12.15-4.52,12.15-4.52l.18,4.95Z" transform="translate(0 42.12)"/><path class="cls-12" d="M98,34.43c-1.19-5.09-2.9-8.51-6.42-10.92C87.6,20.83,84,20.62,78.81,21.37,68.51,22.86,61,35.12,61,35.12s5.76,0,8.16.75A41.33,41.33,0,0,1,88,48.74c1.57,2,3.68,7.33,3.68,7.33S100.33,44.57,98,34.43Z" transform="translate(0 42.12)"/><g class="cls-13"><path class="cls-9" d="M26.6,93l26.76,18s38.23,25.8,37.26,37.78-8,21.36-8,21.36L68.7,166s-.58-14.59-3.89-19.8S38.7,123.23,38.7,123.23L26.6,158.14l-18.23-12Z" transform="translate(0 42.12)"/></g><path class="cls-7" d="M56.33,35.81c-5.89,0-42.58,3.36-48.14,9.27S25,73.17,25,73.17l6-7.1S22.45,54.8,22.26,52.2c-.17-2.34,27.52,2.87,27.52,2.87Z" transform="translate(0 42.12)"/><rect class="cls-6" x="39.48" y="49.9" width="37.27" height="65.93" rx="1.78" transform="translate(-43.06 127.95) rotate(-56.64)"/><rect class="cls-14" x="44.92" y="62.47" width="4.41" height="12.91" transform="translate(-36.36 112.5) rotate(-56.64)"/><rect class="cls-15" x="67.59" y="68.64" width="4.41" height="31.11" transform="translate(-38.9 138.31) rotate(-56.64)"/><rect class="cls-14" x="39.3" y="71.4" width="4.41" height="12.69" transform="translate(-46.25 111.78) rotate(-56.64)"/><rect class="cls-15" x="61.87" y="76.77" width="4.41" height="31.33" transform="translate(-48.36 137.24) rotate(-56.64)"/><circle class="cls-7" cx="58.99" cy="119.15" r="0.87"/><path class="cls-7" d="M62.68,78.78a.88.88,0,1,1-1.75,0,.88.88,0,0,1,1.75,0Z" transform="translate(0 42.12)"/><path class="cls-7" d="M53.88,85.07a.88.88,0,1,1-.87-.88A.87.87,0,0,1,53.88,85.07Z" transform="translate(0 42.12)"/><path class="cls-7" d="M56.33,86.82a.88.88,0,1,1-.88-.88A.87.87,0,0,1,56.33,86.82Z" transform="translate(0 42.12)"/><path class="cls-7" d="M59,88.57a.88.88,0,1,1-.88-.88A.87.87,0,0,1,59,88.57Z" transform="translate(0 42.12)"/><path class="cls-7" d="M61.61,90.32a.88.88,0,1,1-.87-.88A.87.87,0,0,1,61.61,90.32Z" transform="translate(0 42.12)"/><path class="cls-7" d="M64.54,92.07a.88.88,0,1,1-.88-.88A.87.87,0,0,1,64.54,92.07Z" transform="translate(0 42.12)"/><path class="cls-7" d="M65.41,80.67a.88.88,0,0,1-1.75,0,.88.88,0,1,1,1.75,0Z" transform="translate(0 42.12)"/><path class="cls-7" d="M68.31,82.59a.88.88,0,0,1-1.75,0,.88.88,0,1,1,1.75,0Z" transform="translate(0 42.12)"/><path class="cls-11" d="M31.82,63.53c-3-1.57-9.58,6.31-6.79,9.64S38,66.75,31.82,63.53Z" transform="translate(0 42.12)"/><path class="cls-7" d="M93.08,57.87c3.83,4.47,26,30.85,25.11,38.91s-33.73,8.45-33.73,8.45l2.28-9s14.87-2.6,17-4.15c1.88-1.39-17.53-20.77-17.53-20.77Z" transform="translate(0 42.12)"/><path class="cls-11" d="M88.86,94.29c3,1.67-.09,11.46-4.4,10.94S82.81,90.87,88.86,94.29Z" transform="translate(0 42.12)"/></g></g></svg>