<svg xmlns="http://www.w3.org/2000/svg" viewBox="0 0 277.35 377.59"><defs><style>.cls-1{isolation:isolate;}.cls-2,.cls-8{fill:#12022f;}.cls-2{opacity:0.31;}.cls-3{fill:#b393e9;}.cls-4{opacity:0.25;}.cls-10,.cls-13,.cls-14,.cls-17,.cls-20,.cls-22,.cls-23,.cls-4,.cls-5,.cls-7{mix-blend-mode:overlay;}.cls-5{opacity:0.28;}.cls-6{fill:#744c16;}.cls-7{opacity:0.2;}.cls-15,.cls-9{fill:#e74b36;}.cls-10{opacity:0.22;}.cls-11{fill:#f58c7b;}.cls-12{fill:#be705d;}.cls-13{opacity:0.48;}.cls-14{opacity:0.33;}.cls-15{opacity:0.49;}.cls-16{fill:#e63840;}.cls-17,.cls-21{fill:#fff;}.cls-17{opacity:0.24;}.cls-18{fill:#e7e2ff;}.cls-19{fill:#f5bca0;}.cls-20{opacity:0.44;}.cls-22{opacity:0.13;}.cls-23{opacity:0.21;}</style></defs><g class="cls-1"><g id="Layer_2" data-name="Layer 2"><g id="layer_1-2" data-name="layer 1"><ellipse class="cls-2" cx="127.15" cy="358.36" rx="73.34" ry="9.75"/><polygon class="cls-3" points="122.33 255.4 125.92 315.37 133.73 315.37 137.78 252.08 122.33 255.4"/><path class="cls-4" d="M125.91,315.37h7.82l.8-12.53c-3.13-.09-6.27-.41-9.41-.67Z"/><path class="cls-4" d="M135.94,281l1.85-28.87-15.47,3.32.81,13.53A46.09,46.09,0,0,1,135.94,281Z"/><polygon class="cls-3" points="78.56 245.83 81.57 258.33 179.87 257.91 180.25 247.71 78.56 245.83"/><g class="cls-5"><path d="M141.11,254.81c13-1.58,26.1-3.16,38.92-1.23l.22-5.87L78.56,245.83l1.56,6.5a13.29,13.29,0,0,1,1.35-.09C101.52,251.72,121.06,256.87,141.11,254.81Z"/></g><polygon class="cls-6" points="74.36 235.83 185.75 235.51 183.22 251.1 76.35 250.49 74.36 235.83"/><polygon class="cls-3" points="74.36 235.83 185.75 235.51 183.22 251.1 76.35 250.49 74.36 235.83"/><g class="cls-7"><path d="M74.36,235.83l.69,5.12c30.93,2.65,61.87,3.33,92.8-.54a68.84,68.84,0,0,0,17.9-4.88v0Z"/></g><polygon class="cls-3" points="122.63 307.89 137.78 307.89 135.43 334.46 125.14 334.46 122.63 307.89"/><polygon class="cls-3" points="127.97 326.23 80.19 347.28 83.45 349.63 128.84 331.47 127.97 326.23"/><polygon class="cls-3" points="133.16 326.23 180.94 347.28 177.67 349.63 132.28 331.47 133.16 326.23"/><polygon class="cls-3" points="127.61 331.47 128.97 349.63 131.04 349.63 132.63 331.47 127.61 331.47"/><ellipse class="cls-3" cx="80.5" cy="352.02" rx="6.14" ry="6.34"/><ellipse class="cls-3" cx="176.76" cy="351.23" rx="6.14" ry="6.34"/><ellipse class="cls-3" cx="130.05" cy="352.02" rx="6.14" ry="6.34"/><path class="cls-8" d="M94.13,193.37a51.4,51.4,0,0,0-1.06,42.55q15.27-.15,30.87-.09,19.26.07,38,.47a57.52,57.52,0,0,0,.58-22.47,56.45,56.45,0,0,0-7.15-19.28A136.51,136.51,0,0,1,94.13,193.37Z"/><path class="cls-9" d="M110.58,98.23c-5.93.59-9.88,6.68-11.48,9.24a45.57,45.57,0,0,0-6.51,22c-.14,18.7-1.36,45-3,78.34a74.84,74.84,0,0,0,71.71-10.31c-.87-20.43-1.84-41.19-.91-61.62.23-5.14,2.42-16.54-3.95-26.07-1.07-1.62-5-7.56-12.15-9.86-5.65-1.83-6.28.91-17.66-.36-5.47-.62-8.07-.82-13.27-1.22A15.42,15.42,0,0,0,110.58,98.23Z"/><path class="cls-10" d="M160.1,147.86c-6.47,14.45-12.54,28.83-26.49,38.3-13,8.37-28.52,10.63-43.34,8.32q-.3,6.47-.63,13.31a74.84,74.84,0,0,0,71.71-10.31C160.65,181,159.88,164.39,160.1,147.86Z"/><path class="cls-11" d="M31.67,156.24q-4.8,3.9-9.72,8.16-5.35,4.62-10.3,9.18c-1,.11-2.46.28-4.19.53-3.49.5-4.1.75-4.58,1-.66.4-2.19,1.54-2.88,4.71l9,.39h4.46a106.59,106.59,0,0,0,11-5,106.43,106.43,0,0,0,10.82-6.42A46.89,46.89,0,0,1,31.67,156.24Z"/><path class="cls-12" d="M35.36,168.88a46.89,46.89,0,0,1-3.69-12.64q-4.8,3.9-9.72,8.16-2.84,2.44-5.55,4.88A36.13,36.13,0,0,0,18.89,178c1.83-.81,3.71-1.71,5.65-2.72A106.43,106.43,0,0,0,35.36,168.88Z"/><path class="cls-11" d="M141.37,99.73a12.33,12.33,0,0,1-4.13,6c-5.8,4.4-13.45,1.09-14,.84a12.61,12.61,0,0,1-6.8-6.86,52.51,52.51,0,0,0,5.22-8.26l.36-.74c0-.09.09-.18.13-.27a50,50,0,0,0,2.54-6.26c.06-.16.11-.34.17-.5l.13.1a16,16,0,0,0,5.36,3,13.51,13.51,0,0,0,1.31.36h0a16.4,16.4,0,0,0,7.27,0c-.08.27-.16.61-.24,1a14,14,0,0,0,.8,8.63c0,.06,0,.12.08.19A12.68,12.68,0,0,0,141.37,99.73Z"/><path class="cls-13" d="M139.52,96.79c-6.38.4-12.68-1-17.87-5.33l.36-.74c0-.09.09-.18.13-.27a50,50,0,0,0,2.54-6.26A24.23,24.23,0,0,0,131,87.12l.08,0h0a24.82,24.82,0,0,0,7.51,1A13.13,13.13,0,0,0,139.52,96.79Z"/><path class="cls-11" d="M157.15,81.59c-.71.64-11.25,9.91-23.77,8.87a22.43,22.43,0,0,1-5.27-1.07c-16.16-5.31-22.06-27-18.45-39.7,1.83-6.39,7.12-14.2,7.47-14.71,3.15-4.6,4.9-7.16,7.76-9.17,9.8-6.87,27.93-3.92,36.64,6.57.33.39.64.79.93,1.19,2.74,3.77,3.52,7.36,4.24,10.63C167.45,47.63,171.57,68.51,157.15,81.59Z"/><path class="cls-14" d="M159.62,46.83c5.27,4.69,6.7,11.52,7.87,11.12.61-.2.53-2.11.32-3.91a51.19,51.19,0,0,0-1.11-9.85c-.72-3.26-1.51-6.84-4.23-10.61-8.29-11.46-27.42-14.9-37.58-7.77-2.85,2-4.61,4.57-7.76,9.17l-.48.72c4.34-2.28,9.14-4,13.61-6A31.36,31.36,0,0,0,140.14,39C148.36,43.88,153.68,41.54,159.62,46.83Z"/><path class="cls-11" d="M159.28,74.08a10.28,10.28,0,0,0,12.39,2.08,9.27,9.27,0,0,0,4.74-7.81,7.94,7.94,0,0,0-5.07-7.4,6.94,6.94,0,0,0-8.21,3.12C161.47,67.26,160.84,70.84,159.28,74.08Z"/><path class="cls-8" d="M127.49,41.82a4.5,4.5,0,0,1,2.28.7,1.79,1.79,0,0,1-.31,3.27,4.93,4.93,0,0,1-1.66.31A18.88,18.88,0,0,1,120.46,45c-.39-.14-1.55-.65-.95-1.17a7,7,0,0,1,1.76-1,12.7,12.7,0,0,1,3.93-1A12.51,12.51,0,0,1,127.49,41.82Z"/><path class="cls-8" d="M124.3,48.16a1.09,1.09,0,0,1,1.29.06,1.59,1.59,0,0,1,.3,1.38,9.51,9.51,0,0,1-.71,2.62c-.2.47-.52,1-1,1s-1-.56-1.19-1.14a3.65,3.65,0,0,1,.23-2.39A3.37,3.37,0,0,1,124.3,48.16Z"/><path class="cls-8" d="M150.93,48.41a4.53,4.53,0,0,0-2.33-.47,1.8,1.8,0,0,0-1.27,3A4.82,4.82,0,0,0,148.65,52a18.51,18.51,0,0,0,7,2.52c.41.06,1.68.16,1.4-.59a7.12,7.12,0,0,0-1.09-1.68,13.08,13.08,0,0,0-3-2.77A12,12,0,0,0,150.93,48.41Z"/><path class="cls-8" d="M150.55,55.44a1.1,1.1,0,0,0-1.14-.61c-.48.1-.77.58-1,1a9.5,9.5,0,0,0-.74,2.61,1.49,1.49,0,0,0,.36,1.42,1.33,1.33,0,0,0,1.61-.36,3.77,3.77,0,0,0,1-2.17A3.35,3.35,0,0,0,150.55,55.44Z"/><path class="cls-14" d="M138.93,59.49c.08,2.62.18,3.08-.24,3.62a2.92,2.92,0,0,1-2.92.83A3,3,0,0,1,133.59,62a5.33,5.33,0,0,1,.27-3.05,15,15,0,0,1,1-2.31,13.83,13.83,0,0,1,1.3-1.82C138.41,52,138.6,52,138.72,52c.35.12.15,1.09.15,4C138.87,56.75,138.89,58.13,138.93,59.49Z"/><path class="cls-9" d="M132.25,77.21c.29-.72,2.71.4,7.48-.16,3.84-.44,5.47-1.55,5.84-1,.56.87-2.15,5-6,5.41C135.59,82,131.86,78.19,132.25,77.21Z"/><path class="cls-15" d="M117.09,56.58c1.67-2.29,10-.36,10.42,2.41.25,1.45-1.72,2.74-1.93,2.87-2.76,1.77-7.2.35-8.41-2.49C117,59,116.39,57.54,117.09,56.58Z"/><path class="cls-15" d="M155,67.1c-.25-2.83-8.35-5.44-10.17-3.31-1,1.12.06,3.24.17,3.46,1.46,2.94,6,4,8.49,2.2C153.85,69.21,155.13,68.28,155,67.1Z"/><path class="cls-16" d="M125.12,6.24a2.35,2.35,0,0,1,.61.65A2.53,2.53,0,0,1,125.12,6.24Z"/><path class="cls-8" d="M180.78,42.85a18.22,18.22,0,0,1,.23,5.8,10.37,10.37,0,0,0-1.58-2.45,11,11,0,0,0-2.18-2,19.42,19.42,0,0,1-3.83,17.87l-6-1.3c.33-.78,6-15-2.65-26.77-7.33-10-20.07-11.77-29-9.62a31.92,31.92,0,0,0-22.31,21l-6.77-1.51a24.61,24.61,0,0,1,3.91-18.08A9.79,9.79,0,0,0,106,28.37c1.21-4,3.45-7.85,7-10l.69-.4a9.69,9.69,0,0,0-6.22,1.11,14.73,14.73,0,0,1,7.58-7.7A15.21,15.21,0,0,1,126,10.87a7.62,7.62,0,0,0,.28-1.62,4.07,4.07,0,0,0-.53-2.36,4.33,4.33,0,0,0,4.7,0c1.66-1,2.65-2.82,3.57-4.53a11.9,11.9,0,0,1-1.07,6.38c4.94-3.94,10.65-7.13,16.91-8.29S163,.35,168,4.18c-3.65.37-6.42,2.86-9,5.41a22,22,0,0,1,19.19,7.62c-4.87-2.29-10.57-1.42-15.67.28a55.81,55.81,0,0,1,9.75,2.6,18.57,18.57,0,0,1,8.08,5.79c2.76,3.66,3.45,8.39,4.06,12.9a11,11,0,0,0-8.65-5.47A19.07,19.07,0,0,1,180.78,42.85Z"/><path class="cls-8" d="M135.3,28.24C137,31,138.87,34,142.7,36.55c2.43,1.59,3.07,1.28,9.81,3.83,4.83,1.84,7.25,2.76,8.48,3.55,2.39,1.55,6.92,6.32,4.7,24.48a37.37,37.37,0,0,0,8-20.27c.22-3.45.56-8.69-2.41-13.68A30.14,30.14,0,0,0,165.71,28a29.3,29.3,0,0,0-5.46-4.12c-4.1-2.33-5.49-1.44-13-3.49-6.31-1.72-7.76-2.13-10.25-1.86s-3.42,2.88-3.32,5.2A8.44,8.44,0,0,0,135.3,28.24Z"/><path class="cls-14" d="M173.32,67.07c-2.57-.82-5.1.61-6.82,2.46-.22.23,0,.7.33.58,1.28-.46,2.31.72,3,1.59.29.34.78-.14.49-.48a4.79,4.79,0,0,0-2.68-1.89,5.71,5.71,0,0,1,5.45-1.6C173.56,67.87,173.75,67.2,173.32,67.07Z"/><path class="cls-17" d="M180.78,42.85c-10.94-9.35-26.32-25.36-49.47-26.56A58.84,58.84,0,0,0,113,18.34l.69-.4a9.69,9.69,0,0,0-6.22,1.11,14.73,14.73,0,0,1,7.58-7.7A15.21,15.21,0,0,1,126,10.87a7.62,7.62,0,0,0,.28-1.62,53,53,0,0,0,19,5A51.39,51.39,0,0,0,168,10.46a21.64,21.64,0,0,1,10.2,6.75c-4.87-2.29-10.57-1.42-15.67.28a55.81,55.81,0,0,1,9.75,2.6,18.57,18.57,0,0,1,8.08,5.79c2.76,3.66,3.45,8.39,4.06,12.9a11,11,0,0,0-8.65-5.47A19.07,19.07,0,0,1,180.78,42.85Z"/><path class="cls-11" d="M113.67,59.51A10.28,10.28,0,0,1,102,54.92a9.28,9.28,0,0,1,0-9.14,7.93,7.93,0,0,1,8.16-3.73,6.94,6.94,0,0,1,5.43,6.9C115.3,52.54,114,55.93,113.67,59.51Z"/><path class="cls-14" d="M105.24,46.27c2.63.63,4.06,3.16,4.58,5.62.07.31-.35.62-.58.33-.86-1-2.35-.58-3.43-.21-.42.15-.6-.52-.18-.66a4.76,4.76,0,0,1,3.27-.24c-.6-1.9-1.79-3.68-3.85-4.17C104.62,46.83,104.81,46.17,105.24,46.27Z"/><polygon class="cls-18" points="17.68 167.13 13.69 170.36 19.26 179.14 24.62 175.82 17.68 167.13"/><path class="cls-9" d="M110.58,98.23a31.61,31.61,0,0,0-8.84,1.11c-7.42,2-11.9,6.6-20.07,14.58-1.62,1.58-10.37,10.14-13.87,13.46-6.75,6.42-14,11.91-28.13,22.63-6,4.57-14.19,10.66-24.05,17.73l6.9,10.06q18.6-9.3,37.82-19.57,17.56-9.39,34.2-18.83a63,63,0,0,1,16-41.17Z"/><path class="cls-10" d="M86.23,141.3C64.56,153.4,43.89,167.51,18.69,170a3.65,3.65,0,0,1-1.47,0q2.64,3.87,5.3,7.73,18.6-9.3,37.82-19.57,16.55-8.83,32.25-17.73A9.82,9.82,0,0,0,86.23,141.3Z"/><path class="cls-8" d="M192.17,155.09q-.42,1.53-.87,3.06c-.2.73-.42,1.47-.63,2.2-3.42,11.72-7.49,24.16-12.35,37.13-5.28,14.09-10.83,27-16.37,38.82l-2.51-.07-1,0-15.43-.44-1,0-7.54-.22-1,0-3.44-.1a473.14,473.14,0,0,1,20.32-45.45,467.89,467.89,0,0,1,24.7-42.51A19.35,19.35,0,0,1,186.18,143c.43,0,.85,0,1.27,0a7.56,7.56,0,0,1,4.7,1.81,4.54,4.54,0,0,1,.64.75h0C195,148.77,192.53,154.31,192.17,155.09Z"/><path class="cls-9" d="M207.71,114.67h0a9.92,9.92,0,0,1,.57,2.7,18.8,18.8,0,0,1-.19,2.79c0,1.08.74,2.65,4,4.56a161.55,161.55,0,0,1-20.69,6,161,161,0,0,1-33.1,3.71q-1.11-3.56-2.33-7.14c-3.16-9.39-6.55-18.32-10.08-26.8,1.46.4,3.81,1,6.73,1.73,6,1.43,8.42,1.67,16.24,3.3,5.2,1.09,4.52,1.06,9.08,2a126.74,126.74,0,0,0,13,2.27,73.61,73.61,0,0,0,13.17.12Z"/><path class="cls-19" d="M168.27,76.62c15,12.67,31.18,24.19,46.86,36-4.09,3.35-8.69,5.8-12.78,9.14C180.47,99.86,165,84.72,161,81.65a5.09,5.09,0,0,1-2.17-3c-.54-2.86,2.9-3.87,4.91-8.57,1.84-4.28.55-7,3.35-10,.32-.34,1.45-1.59,2.23-1.3s.91,2.62.71,5.47A90.79,90.79,0,0,1,168.27,76.62Z"/><path class="cls-11" d="M168.27,76.62c15,12.67,31.18,24.19,46.86,36-4.09,3.35-8.69,5.8-12.78,9.14C180.47,99.86,165,84.72,161,81.65a5.09,5.09,0,0,1-2.17-3c-.54-2.86,2.9-3.87,4.91-8.57,1.84-4.28.55-7,3.35-10,.32-.34,1.45-1.59,2.23-1.3s.91,2.62.71,5.47A90.79,90.79,0,0,1,168.27,76.62Z"/><path class="cls-14" d="M170,59.91c-.12-.63-.33-1.06-.69-1.19-.78-.29-1.91,1-2.23,1.3-2.8,3.09-1.51,5.77-3.35,10-2,4.7-5.45,5.71-4.91,8.57a5.09,5.09,0,0,0,2.17,3c.51.39,1.22,1,2.1,1.76a15.83,15.83,0,0,1-.26-1.7C162.08,74.45,165.65,66.48,170,59.91Z"/><path class="cls-18" d="M175.87,81.23l-5-3.85-8.38,6.43c1.22,1.44,2.45,2.87,3.68,4.31Z"/><path class="cls-9" d="M216.91,117.83h0v0a9.91,9.91,0,0,1-1.62,4.08,9.5,9.5,0,0,1-4.42,3.64c-9.19,3.48-22.91-11.55-35.15-25-1.32-1.45-2.58-2.86-3.75-4.22-2-2.31-3.78-4.48-5.34-6.45l-1.8-2.31h0l11.73-7.91h0l3.7,2.86L183,84.68l.93.73.63.48.29.22,1.51,1.17,1.39,1.08.23.18.66.51.29.23.4.31a2,2,0,0,0,.25.18l.22.19.22.16.28.22.34.26s0,0,0,0l.27.21c.51.4.86.68,1.34,1C211.27,106.61,217.72,111.76,216.91,117.83Z"/><path class="cls-10" d="M216.91,117.83h0v0a9.91,9.91,0,0,1-1.62,4.08c-.45-1-1-2.32-1.69-3.74a37.25,37.25,0,0,0-2-3.91,46.21,46.21,0,0,0-8.39-10.3,55,55,0,0,0-36.6-14l-1.8-2.31h0l11.73-7.91h0l3.7,2.86L183,84.68l.93.73.34.26.29.22.29.22,1.51,1.17,1.39,1.08.23.18.66.51.29.23.4.31a2,2,0,0,0,.25.18l.22.19.22.16.28.22.34.26s0,0,0,0l.27.21c.51.4.86.68,1.34,1C211.27,106.61,217.72,111.76,216.91,117.83Z"/><path class="cls-18" d="M187.2,232.59c-1.19-.6-2.66-1-5.79-.85a27.67,27.67,0,0,0-2.81.26c.51-2.31,1-4.63,1.52-6.94a22.17,22.17,0,0,1-8.56.67q0,3.36,0,6.74h0l-.45,5.79a63.23,63.23,0,0,0,9.3.53,66.41,66.41,0,0,0,8.84-.74,5.41,5.41,0,0,0,.14-3.43C189.21,234.24,188.83,233.4,187.2,232.59Z"/><path class="cls-11" d="M180.12,225.06l1.8-8.26A23.24,23.24,0,0,1,171.65,215q-.06,5.36-.09,10.72A22.17,22.17,0,0,0,180.12,225.06Z"/><path class="cls-13" d="M181,220.88c.3-1.36.6-2.72.89-4.08A23.24,23.24,0,0,1,171.65,215c0,1.5,0,3,0,4.51A13.57,13.57,0,0,1,181,220.88Z"/><path class="cls-8" d="M200.49,131q-4.08,21.45-8.1,42.91-4.12,22-8.18,44.06l-2.78-.34-1-.12-3.55-.44-.33,0-.69-.08-5.49-.67q1.21-22.47,2.32-45,1.06-21.87,2.06-43.74c1.84-5.68,6.08-10,10.85-10.79a1.6,1.6,0,0,1,.23,0,7.46,7.46,0,0,1,1-.1,12.08,12.08,0,0,1,7,2.17A16.46,16.46,0,0,1,200.49,131Z"/><path class="cls-20" d="M172.07,216.44l3.78.46.69.08.33,0,3.55.44,1,.12,2.78.34q2.78-15.07,5.59-30.15C185.87,199.16,180.55,209.45,172.07,216.44Z"/><path class="cls-8" d="M170.74,239.32l18.63-.1c.17-.32,1.44-2.78.27-4.84-.72-1.28-2-1.7-3.72-2.29-1.57-.53-5-1.68-7.32-.09-1.25.85-1.1,1.74-2.3,2.3-1.54.73-3.43,0-4.87-.73Z"/><path class="cls-8" d="M179.65,83.81a1.06,1.06,0,0,1-2.12,0,1.06,1.06,0,1,1,2.12,0Z"/><path class="cls-8" d="M182.74,86.42a1,1,0,1,1-1-1A1,1,0,0,1,182.74,86.42Z"/><path class="cls-8" d="M20,168a.88.88,0,1,1-.88-.88A.88.88,0,0,1,20,168Z"/><path class="cls-8" d="M23,166.28a.85.85,0,1,1-.84-.85A.85.85,0,0,1,23,166.28Z"/><polygon class="cls-18" points="117.53 99.45 131.44 102.91 143.56 102.91 133.84 136.27 129.75 165.54 125.49 133.51 117.53 106.05 117.53 99.45"/><path class="cls-8" d="M119.93,94.58c-.63,0-5.88-.36-9.35,3.65a10.81,10.81,0,0,0-2.5,6l6.85.74-6.41,4.54A108.69,108.69,0,0,1,116,120.73a122.16,122.16,0,0,1,6.19,12.51c6.35,15.5,6.1,37.29,6,40.5h1.5c.47-35.22-2.51-49.21-5.7-55a36.14,36.14,0,0,1-4.38-12.83A35.21,35.21,0,0,1,119.93,94.58Z"/><path class="cls-8" d="M139.91,97.47a19.2,19.2,0,0,1,8.76,3.07,18.87,18.87,0,0,1,4.66,4.39l-9,2.31,6.41,4.53A111.22,111.22,0,0,0,143.29,123a120.16,120.16,0,0,0-6.19,12.51c-6.06,14.85-5.95,34.13-5.89,38.19H129.7c-.23-33.69,2.61-47.08,5.55-52.74a40.18,40.18,0,0,0,4.66-23.53Z"/><polygon class="cls-9" points="125.27 104.31 129.69 102.8 133.95 105.33 132.29 110.75 126.53 110.75 125.27 104.31"/><path class="cls-9" d="M127.27,109.92l-.83,23.46,3.3,29.6,3.93-29.54q-1-11.76-2-23.52Z"/><path class="cls-18" d="M119.69,94.58l9.76,7.69,10.22-4.8,1.08.13a8.73,8.73,0,0,1,.77,5.33,9,9,0,0,1-4.08,5.87l-8-5.71-8.08,4a12.94,12.94,0,0,1-2.69-8.34A12.07,12.07,0,0,1,119.69,94.58Z"/><polygon class="cls-8" points="51.55 116.61 150.62 119.17 136.28 189.88 61.18 190.41 51.55 116.61"/><g class="cls-5"><polygon class="cls-21" points="51.55 116.61 150.62 119.17 61.02 124.83 61.18 190.41 51.55 116.61"/></g><g class="cls-5"><path d="M114.91,171.38c-17.5,6.76-37.3,8.93-55.61,4.64l1.88,14.39,75.1-.53,14.34-70.71-.9,0C146.66,141.09,136,163.18,114.91,171.38Z"/></g><path class="cls-18" d="M95.07,147.9a7.8,7.8,0,0,1,7.18-5.64c4.85-.12,9.38,5,8.2,9.74a8,8,0,0,1-8.71,5.64A8.16,8.16,0,0,1,95.07,147.9Z"/><path class="cls-8" d="M229.32,161.69c0,.6-.66,8.68-5.62,11.38a12.64,12.64,0,0,1-2.89,1.06,11.52,11.52,0,0,1-6.68-.45c-3.6-1.56-5.92-6.61-5.27-12.34a24.07,24.07,0,0,1,20.46.35Z"/><path class="cls-11" d="M218.84,158.48a40.52,40.52,0,0,0-11.43,1.09c0,.81,0,1.62,0,2.44a24.23,24.23,0,0,1,22.77.12l-.09-1.48A41.29,41.29,0,0,0,218.84,158.48Z"/><path class="cls-9" d="M230.11,160.65c.28,4.36.57,8.8-.2,13.06s-2.77,8.4-5.92,10.22c-4.61,2.65-10.33-.63-13.18-5.92s-3.43-12-3.4-18.44C214.52,162.51,223,163.63,230.11,160.65Z"/><g class="cls-22"><path class="cls-21" d="M219.79,170.87c2.68-2.58,4.76-5.18,5.47-8.9a32.38,32.38,0,0,1-16.44-1.87C208.79,168.43,213.74,174.38,219.79,170.87Z"/></g><g class="cls-23"><path d="M230.11,160.65c-.26.1-.53.17-.79.27.31,13.76-10.12,20.83-17.83,18.22,3,4.61,8.23,7.25,12.5,4.79,3.15-1.82,5.15-6,5.92-10.22S230.39,165,230.11,160.65Z"/></g><polygon class="cls-3" points="260.03 214.85 266.61 377.39 260.95 377.59 241.6 215.5 260.03 214.85"/><g class="cls-5"><path d="M241.6,215.5,243.45,231a39.43,39.43,0,0,1,17.62,9.48l-1-25.59Z"/></g><polygon class="cls-3" points="18.03 214.85 11.45 377.39 17.12 377.59 36.46 215.5 18.03 214.85"/><g class="cls-5"><path d="M36.46,215.5,34.61,231A39.4,39.4,0,0,0,17,240.44l1-25.59Z"/></g><polygon class="cls-3" points="8.96 204.3 10.83 221.69 266.18 222.23 271.07 203.12 8.96 204.3"/><g class="cls-5"><path d="M9,204.3l1,9.16c11.39-.33,29.41-.75,51.6-.74,40.06,0,47.23,1.39,84.36,1.19s55.88-.31,63.41-1.19a191.14,191.14,0,0,1,47.48-.46c4.84.58,8.81,1.25,11.49,1.74l2.79-10.88Z"/></g><polygon class="cls-3" points="1.48 179.94 277.35 180.4 273.35 209.35 4.3 208.05 1.48 179.94"/><g class="cls-22"><path d="M103.88,208.06l-2.67.46,172.14.83,4-28.95L213,180.29C179.06,194.61,141.59,201.22,103.88,208.06Z"/></g><g class="cls-7"><polygon points="268.76 203.37 277.35 180.4 273.35 209.35 4.3 208.05 268.76 203.37"/></g><g class="cls-5"><polygon class="cls-21" points="1.48 179.94 277.35 180.4 8.96 186.03 4.3 208.05 1.48 179.94"/></g><path class="cls-11" d="M117.87,342.77c-.17-1.44-.34-2.86-.52-4.26h0c-3.15-36.17-6.55-72.37-9.77-108.55-3.64-8.82-12.38-12.31-18.45-9.18-4.3,2.22-7.06,7.66-7.12,13.69q13.17,53.22,29.37,105.45h0l.89,3.41A9.92,9.92,0,0,0,117.87,342.77Z"/><path class="cls-18" d="M118.23,346.09c-.11-1.07-.23-2.15-.35-3.24v-.08a9.92,9.92,0,0,1-5.6.57l.13.51c0,.12.55,2.08.78,3h0a20.81,20.81,0,0,0-.53,4.95c0,.36,0,.73.08,1.1a6.07,6.07,0,0,0,6.91-.8,4.38,4.38,0,0,0,.94-.74c-.66-1.39-1.51-3.16-2.35-5.24Z"/><path class="cls-13" d="M117.76,341.86c-.14-1.13-.27-2.25-.41-3.35h0c-3.15-36.17-6.55-72.37-9.77-108.55-3.64-8.82-12.38-12.31-18.45-9.18-4.3,2.22-7.06,7.66-7.12,13.69q13.17,53.22,29.37,105.45h0c0,.08.22.87.44,1.71A14.49,14.49,0,0,1,117.76,341.86Z"/><path class="cls-8" d="M118.79,339.18l-3.51.88-1,.25c-.76.19-1.53.37-2.28.57l-1,.24-1.26.32C104.43,324.79,99.21,307,94.32,288.1c-4.84-18.65-8.9-36.58-12.31-53.63a17.12,17.12,0,0,1,4.16-11.42,11.72,11.72,0,0,1,3-2.27,10.14,10.14,0,0,1,4.63-1.12,8.58,8.58,0,0,1,1,0,13.18,13.18,0,0,1,5.48,1.7c.35.2.69.41,1,.64a17.51,17.51,0,0,1,6.29,7.94q3.21,26.5,6,54,1.92,18.59,3.56,36.8h0c.17,1.81.33,3.62.49,5.42h0Q118.25,332.72,118.79,339.18Z"/><path class="cls-20" d="M117.66,326.19h0c-.16-1.8-.32-3.61-.49-5.42h0q-1-10.63-2-21.41a15.93,15.93,0,0,1-5.09,8.92,9.2,9.2,0,0,1-9.44,1.92l-.25.19q4.59,16.13,9.4,31.06l1.26-.32,1-.24c.75-.2,1.52-.38,2.28-.57l1-.25,3.51-.88Q118.25,332.72,117.66,326.19Z"/><path class="cls-8" d="M112.43,350.15c-.33,6,1.49,10.62,4.45,11.56a4,4,0,0,0,3.36-.39c2.26-1.64,1.38-6.29,1.05-8.07a17.92,17.92,0,0,0-1.09-3.6c-.66-1.18-1.31-2.37-2-3.56a2.66,2.66,0,0,1-.69,2.82,2.34,2.34,0,0,1-1.63.52,3.34,3.34,0,0,1-2.73-2.61Z"/><path class="cls-18" d="M118.39,351.82a.37.37,0,0,0-.44-.25l-2.35.57a.36.36,0,0,0-.25.44.36.36,0,0,0,.44.25l2.35-.57A.35.35,0,0,0,118.39,351.82Z"/><path class="cls-18" d="M119.05,353.56a.36.36,0,0,0-.44-.25,21.73,21.73,0,0,0-2.64.8.35.35,0,0,0-.25.44.36.36,0,0,0,.44.25,21.73,21.73,0,0,1,2.64-.8A.36.36,0,0,0,119.05,353.56Z"/></g></g></g></svg>