<svg xmlns="http://www.w3.org/2000/svg" xmlns:xlink="http://www.w3.org/1999/xlink" viewBox="0 0 2822.27 2800"><defs><style>.cls-1{isolation:isolate;}.cls-2{opacity:0.3;fill:url(#linear-gradient);}.cls-3{fill:url(#linear-gradient-2);}.cls-10,.cls-11,.cls-12,.cls-4,.cls-42{fill:#fff;}.cls-4{mix-blend-mode:soft-light;}.cls-5{fill:url(#linear-gradient-3);}.cls-6{fill:url(#linear-gradient-4);}.cls-7{fill:url(#linear-gradient-5);}.cls-8{fill:url(#linear-gradient-6);}.cls-9{fill:url(#linear-gradient-7);}.cls-10{opacity:0.65;}.cls-12{opacity:0.4;}.cls-13{fill:url(#linear-gradient-8);}.cls-14{opacity:0.2;fill:url(#linear-gradient-9);}.cls-15{fill:url(#linear-gradient-10);}.cls-16{fill:url(#linear-gradient-11);}.cls-17{fill:url(#linear-gradient-12);}.cls-18{fill:url(#linear-gradient-13);}.cls-19{fill:url(#linear-gradient-14);}.cls-20{fill:url(#linear-gradient-15);}.cls-21{fill:url(#linear-gradient-16);}.cls-22{fill:url(#linear-gradient-17);}.cls-23{fill:url(#linear-gradient-18);}.cls-24{fill:url(#linear-gradient-19);}.cls-25{fill:url(#linear-gradient-20);}.cls-26{fill:url(#linear-gradient-21);}.cls-27{fill:url(#linear-gradient-22);}.cls-28{fill:url(#linear-gradient-23);}.cls-29{fill:url(#linear-gradient-24);}.cls-30{fill:url(#linear-gradient-25);}.cls-31{fill:url(#linear-gradient-26);}.cls-32{fill:url(#linear-gradient-27);}.cls-33{fill:url(#linear-gradient-28);}.cls-34{fill:url(#linear-gradient-29);}.cls-35{fill:url(#linear-gradient-30);}.cls-36{opacity:0.84;}.cls-37{fill:url(#linear-gradient-31);}.cls-38{opacity:0.9;}.cls-39{fill:url(#linear-gradient-32);}.cls-40{fill:url(#linear-gradient-33);}.cls-41{fill:url(#linear-gradient-34);}.cls-42{opacity:0.09;}.cls-43{fill:url(#linear-gradient-35);}</style><linearGradient id="linear-gradient" x1="3076.05" y1="3209.23" x2="1118.04" y2="1124.9" gradientUnits="userSpaceOnUse"><stop offset="0" stop-color="#b37cff"/><stop offset="1" stop-color="#f895e7"/></linearGradient><linearGradient id="linear-gradient-2" x1="1983.77" y1="1398.18" x2="3271.81" y2="1398.18" gradientTransform="matrix(0.87, 0.49, -0.49, 0.87, -1040.49, -1385.46)" gradientUnits="userSpaceOnUse"><stop offset="0" stop-color="#a737d5"/><stop offset="1" stop-color="#ef497a"/></linearGradient><linearGradient id="linear-gradient-3" x1="-2659.19" y1="1834.12" x2="-1079.01" y2="1834.12" gradientTransform="translate(-913.96 -1253.26) rotate(-70.92)" gradientUnits="userSpaceOnUse"><stop offset="0" stop-color="#ce1567"/><stop offset="1" stop-color="#7a1dbc"/></linearGradient><linearGradient id="linear-gradient-4" x1="1449.96" y1="2808.23" x2="1412.33" y2="2063.22" gradientUnits="userSpaceOnUse"><stop offset="0" stop-color="#2b3582"/><stop offset="1" stop-color="#150e42"/></linearGradient><linearGradient id="linear-gradient-5" x1="1459.01" y1="2659.87" x2="1112.84" y2="3419.92" xlink:href="#linear-gradient-4"/><linearGradient id="linear-gradient-6" x1="2738.21" y1="2234.87" x2="310.87" y2="654.04" xlink:href="#linear-gradient-4"/><linearGradient id="linear-gradient-7" x1="1953.91" y1="486.94" x2="-284.58" y2="4287.81" gradientUnits="userSpaceOnUse"><stop offset="0" stop-color="#53d8ff"/><stop offset="1" stop-color="#3840f7"/></linearGradient><linearGradient id="linear-gradient-8" x1="647.68" y1="577.01" x2="112.39" y2="1514.42" xlink:href="#linear-gradient-7"/><linearGradient id="linear-gradient-9" x1="2021.14" y1="1570.63" x2="2161.68" y2="1570.63" gradientTransform="translate(-2012.66 282.75) rotate(-25.51)" xlink:href="#linear-gradient-7"/><linearGradient id="linear-gradient-10" x1="670.81" y1="590.21" x2="135.52" y2="1527.62" xlink:href="#linear-gradient-7"/><linearGradient id="linear-gradient-11" x1="1849.31" y1="909.86" x2="982.4" y2="2225.53" gradientUnits="userSpaceOnUse"><stop offset="0" stop-color="#fdf53f"/><stop offset="0.66" stop-color="#e57a58"/><stop offset="1" stop-color="#d93c65"/></linearGradient><linearGradient id="linear-gradient-12" x1="1108.74" y1="1261.81" x2="800.42" y2="2752.04" gradientUnits="userSpaceOnUse"><stop offset="0" stop-color="#cb236d"/><stop offset="1" stop-color="#4c246d"/></linearGradient><linearGradient id="linear-gradient-13" x1="1813.88" y1="886.52" x2="946.97" y2="2202.18" xlink:href="#linear-gradient-11"/><linearGradient id="linear-gradient-14" x1="-2796.74" y1="-402.98" x2="-2472.76" y2="-830.74" gradientTransform="matrix(-1, 0, 0, 1, -3017.43, 0)" gradientUnits="userSpaceOnUse"><stop offset="0" stop-color="#f9b776"/><stop offset="1" stop-color="#f47960"/></linearGradient><linearGradient id="linear-gradient-15" x1="1351.51" y1="1535.59" x2="1073.09" y2="1743.14" gradientTransform="matrix(1, 0, 0, 1, 0, 0)" xlink:href="#linear-gradient-14"/><linearGradient id="linear-gradient-16" x1="8159.73" y1="2690.95" x2="7731.42" y2="3156.84" gradientTransform="translate(-7104.98)" xlink:href="#linear-gradient-4"/><linearGradient id="linear-gradient-17" x1="8020.71" y1="2725.55" x2="8058.75" y2="2725.55" gradientTransform="translate(-7104.98)" xlink:href="#linear-gradient-14"/><linearGradient id="linear-gradient-18" x1="8193.46" y1="2164.08" x2="7829" y2="2658.05" gradientTransform="translate(-7104.98)" gradientUnits="userSpaceOnUse"><stop offset="0" stop-color="#7c27dd"/><stop offset="1" stop-color="#2b41d9"/></linearGradient><linearGradient id="linear-gradient-19" x1="8063.65" y1="2602.61" x2="7635.33" y2="3068.5" gradientTransform="translate(-7104.98)" xlink:href="#linear-gradient-4"/><linearGradient id="linear-gradient-20" x1="7883.59" y1="2723.6" x2="7916.44" y2="2723.6" gradientTransform="translate(-7104.98)" xlink:href="#linear-gradient-14"/><linearGradient id="linear-gradient-21" x1="8128.5" y1="2116.16" x2="7764.05" y2="2610.13" xlink:href="#linear-gradient-18"/><linearGradient id="linear-gradient-22" x1="2075.61" y1="262.08" x2="1018.92" y2="-41.23" gradientTransform="translate(-7104.98)" xlink:href="#linear-gradient-11"/><linearGradient id="linear-gradient-23" x1="-2663.66" y1="-302.19" x2="-2339.68" y2="-729.94" xlink:href="#linear-gradient-14"/><linearGradient id="linear-gradient-24" x1="2084.75" y1="230.21" x2="1028.06" y2="-73.1" gradientTransform="translate(-7104.98)" xlink:href="#linear-gradient-11"/><linearGradient id="linear-gradient-25" x1="773.78" y1="1904.18" x2="1004.11" y2="1582.73" gradientTransform="matrix(1, 0, 0, 1, 0, 0)" xlink:href="#linear-gradient-14"/><linearGradient id="linear-gradient-26" x1="117.85" y1="3989.65" x2="81.51" y2="3869.79" gradientTransform="matrix(0.75, -0.67, 0.67, 0.75, -1788.41, -1214.31)" xlink:href="#linear-gradient-14"/><linearGradient id="linear-gradient-27" x1="-1955.05" y1="1688.03" x2="-1551.17" y2="1604.47" gradientTransform="matrix(-1, 0, 0, 1, -777.83, 0)" xlink:href="#linear-gradient-4"/><linearGradient id="linear-gradient-28" x1="80.7" y1="3989.09" x2="48" y2="3881.25" gradientTransform="matrix(0.75, -0.67, 0.67, 0.75, -1788.41, -1214.31)" xlink:href="#linear-gradient-14"/><linearGradient id="linear-gradient-29" x1="1643.76" y1="2363.91" x2="1567.83" y2="2804.32" gradientTransform="translate(-1006.3)" xlink:href="#linear-gradient-14"/><linearGradient id="linear-gradient-30" x1="1701.85" y1="2373.93" x2="1625.91" y2="2814.34" gradientTransform="translate(-1006.3)" xlink:href="#linear-gradient-14"/><linearGradient id="linear-gradient-31" x1="-2088.63" y1="8805.44" x2="-2781.87" y2="9547.7" gradientTransform="translate(-7722.48 2111.57) rotate(-100.61)" xlink:href="#linear-gradient-2"/><linearGradient id="linear-gradient-32" x1="1866.17" y1="8488.35" x2="769.7" y2="9662.35" gradientTransform="translate(-7193.15 850.11) rotate(-68.94)" xlink:href="#linear-gradient-12"/><linearGradient id="linear-gradient-33" x1="1367.62" y1="3346.76" x2="3135.26" y2="368.98" xlink:href="#linear-gradient-4"/><linearGradient id="linear-gradient-34" x1="2288.37" y1="1758.14" x2="1638.02" y2="2820.25" xlink:href="#linear-gradient-11"/><linearGradient id="linear-gradient-35" x1="2193.48" y1="996.14" x2="2020.11" y2="1764.38" xlink:href="#linear-gradient-7"/></defs><g class="cls-1"><g id="Layer_2" data-name="Layer 2"><g id="Illustration"><path class="cls-2" d="M2488.16,2373c-72.28,74.51-137,118.31-186.48,151.37-482.93,322.46-1035,229.52-1205.66,197.75-275.37-51.25-507.82-87.41-707.53-267.84-453.82-410-431.75-1265.31-85-1795.13,41.12-62.82,387.37-576.07,940.61-648.39C1257.65,9,1267.75,8,1276.59,7.05,1362.17-2,1892.53-49.83,2325,312.47c61.9,51.87,161.53,145.41,253.91,288.09C2916.67,1122.24,2917.74,1930.21,2488.16,2373Z"/><path class="cls-3" d="M402.73,102.88C401.52,88.19,420.08,80.72,429.56,92c96.25,114.63,320.36,450.27,192.19,975-160.82,658.39-50.64,918.71,104.91,1088,0,0-229.58-98.21-349.85-363.36C81.52,1140.68,424.15,364.09,402.73,102.88Z"/><path class="cls-4" d="M460.38,321.34c4.71,76,7.92,152,8.35,228.07q1.25,114-4.5,227.92c-4.13,75.84-9.69,151.6-18.46,227-8.43,75.44-20.09,150.44-32.06,225.69-11.54,75.28-23.59,151-27.93,228.29-4.4,77.07.33,155.9,19.33,231.53,4.75,18.85,9.87,37.69,16.05,56,5.84,18.47,12.49,36.69,19.48,54.78a828.59,828.59,0,0,0,49.82,105.22c38.39,67.62,87.05,129.34,142.33,183.25a14.72,14.72,0,0,0,20.86-20.76l0,0c-13.07-13.49-26-27.12-38.23-41.27-6.24-7-12.16-14.23-18.21-21.36-5.77-7.34-11.83-14.47-17.37-22a776.07,776.07,0,0,1-61.36-93.56c-36.56-65-63.6-135.77-81.87-208a740.88,740.88,0,0,1-18-110.17,839.78,839.78,0,0,1-1.66-112.1c3.63-75,14.95-150.13,25.95-225.48s21.35-151.22,28.65-227.37q5.63-57.07,9.21-114.33c1.3-19.07,2.24-38.16,3.2-57.25q1.19-28.65,2-57.3,2.93-114.6-1.23-229.14c-3.16-76.3-8.35-152.49-16.46-228.35a3.94,3.94,0,0,0-7.86.66Z"/><path class="cls-5" d="M386.35,1973.21c-10.72,25-43.44,30.84-62.45,11.44C219,1877.62-50.19,1548.18,8.19,1034.14,57.49,600.05,43,360,28.84,251.47c-3-22.95,25.05-36.38,41.08-19.69C246.83,415.88,774.89,1069,386.35,1973.21Z"/><path class="cls-4" d="M349.63,1971.28a11.74,11.74,0,0,1-1.87.85,10.61,10.61,0,0,1-13.5-6.53c-2.18-6.27-217.54-634-176.25-1240.67a10.6,10.6,0,1,1,21.16,1.44c-41,602.24,173,1226,175.13,1232.26A10.63,10.63,0,0,1,349.63,1971.28Z"/><polygon class="cls-6" points="1142.23 2095.21 1079.74 2655.69 1804.77 2655.69 1710.34 2095.21 1142.23 2095.21"/><path class="cls-7" d="M1961,2770.36H899.8c-28.82,0-50.47-20.52-44.9-42.57l13.62-53.85c4.09-16.19,21.91-28.08,43.07-28.74l1023-31.92c22.11-.69,41.68,11,46.5,27.87l24.55,85.77C2012,2749.21,1990.24,2770.36,1961,2770.36Z"/><path class="cls-8" d="M232.68,714.33V1998a194.72,194.72,0,0,0,189.7,194.67c468.85,12.09,1676.41,41.4,2122.72,34.82a143.27,143.27,0,0,0,141.06-139.2c8.61-298.2,22.59-1015.28-29.14-1348.2a147.44,147.44,0,0,0-141-124.8c-392.83-12.57-1698.89-52.47-2145-42.45A141.53,141.53,0,0,0,232.68,714.33Z"/><path class="cls-9" d="M313.22,708.08V1927.62a112.83,112.83,0,0,0,111.14,112.81l2056.53,30.74a109.8,109.8,0,0,0,111.45-109.38l4.16-1208.64a80.3,80.3,0,0,0-78.35-80.57L402.34,621.1A87,87,0,0,0,313.22,708.08Z"/><path class="cls-10" d="M2611.07,2121.63H2611L313.14,2075.11a3.92,3.92,0,0,1-3.85-4,4,4,0,0,1,4-3.85l2297.85,46.52a3.93,3.93,0,0,1-.08,7.85Z"/><path class="cls-10" d="M1396.81,2178.44a32.33,32.33,0,1,1,32.33-32.33A32.37,32.37,0,0,1,1396.81,2178.44Zm0-56.81a24.48,24.48,0,1,0,24.47,24.48A24.51,24.51,0,0,0,1396.81,2121.63Z"/><path class="cls-11" d="M1471,2660.26a3.93,3.93,0,0,1-.06-7.86l43.84-.64a3.93,3.93,0,0,1,.11,7.85l-43.83.65Z"/><path class="cls-11" d="M894.19,2741.14a4.21,4.21,0,0,1-.62,0,3.92,3.92,0,0,1-3.26-4.5l6.25-39.16a44.15,44.15,0,0,1,43-37.26l464.95-6.8a3.93,3.93,0,0,1,.12,7.86L939.71,2668a36.32,36.32,0,0,0-35.4,30.64l-6.25,39.16A3.92,3.92,0,0,1,894.19,2741.14Z"/><path class="cls-11" d="M2070.39,846.18a46,46,0,1,1,46-46A46.05,46.05,0,0,1,2070.39,846.18Zm0-78.42a32.42,32.42,0,1,0,32.41,32.42A32.45,32.45,0,0,0,2070.39,767.76Z"/><path class="cls-11" d="M2223.1,846.18a46,46,0,1,1,46-46A46.05,46.05,0,0,1,2223.1,846.18Zm0-78.42a32.42,32.42,0,1,0,32.41,32.42A32.45,32.45,0,0,0,2223.1,767.76Z"/><path class="cls-11" d="M2375.81,846.18a46,46,0,1,1,46-46A46.05,46.05,0,0,1,2375.81,846.18Zm0-78.42a32.42,32.42,0,1,0,32.41,32.42A32.45,32.45,0,0,0,2375.81,767.76Z"/><path class="cls-12" d="M1662.82,1808.41l-1189.13,8c-34.1.23-61.51-31.07-60.35-68.93l22.71-744.09c1-33.9,26.16-60.77,56.7-60.62l1157.71,5.42c31.22.15,56.4,28.37,56.24,63l-3.53,752.29C1703.06,1788.24,1685.06,1808.26,1662.82,1808.41Z"/><path class="cls-12" d="M1689.08,1927.63H430.94c-8.77,0-15.89-8.24-15.89-18.4V1875.6c0-10.25,7.25-18.53,16.11-18.4l1258.13,19.31c8.7.13,15.69,8.33,15.69,18.4v14.32C1705,1919.39,1697.86,1927.63,1689.08,1927.63Z"/><path class="cls-11" d="M2468.6,2008.91h-1.17L422,1972a76.45,76.45,0,0,1-74.95-77.57L365.66,758.79a85.79,85.79,0,0,1,87.88-84.37h0l2004.57,48.66A75.31,75.31,0,0,1,2532,798.81V1945.45a63.46,63.46,0,0,1-63.44,63.46ZM451.41,688a72.21,72.21,0,0,0-72.16,71L360.67,1894.68a62.83,62.83,0,0,0,61.6,63.75l2045.4,36.88a49.87,49.87,0,0,0,50.77-49.86V798.81a61.79,61.79,0,0,0-60.66-62.14L453.21,688C452.61,688,452,688,451.41,688Z"/><path class="cls-11" d="M2415,1305h-.1l-584.36-11.29a50.59,50.59,0,0,1-49.36-50.32V992.05a65.79,65.79,0,0,1,65.72-65.72H2415a65.79,65.79,0,0,1,65.72,65.72v247.2A65.79,65.79,0,0,1,2415,1305ZM1846.9,936.53a55.59,55.59,0,0,0-55.53,55.52v251.31a40.33,40.33,0,0,0,39.36,40.12l584.32,11.29a55.58,55.58,0,0,0,55.47-55.52V992.05A55.58,55.58,0,0,0,2415,936.53Z"/><path class="cls-12" d="M2453.25,1930h-644.6a22.38,22.38,0,0,1-22.38-22.37v-30.47a22.38,22.38,0,0,1,22.84-22.37l644.6,13.22a22.37,22.37,0,0,1,21.91,22.37v17.25A22.37,22.37,0,0,1,2453.25,1930Z"/><path class="cls-11" d="M2442.67,1821.4h-.58L1817,1812.3a38.23,38.23,0,0,1-37.52-38.06V1594.36a38.07,38.07,0,0,1,38.66-38.07l625.14,9.52a38.23,38.23,0,0,1,37.49,38.06v179.46a38.07,38.07,0,0,1-38,38.07ZM1817.5,1566.48a27.89,27.89,0,0,0-27.87,27.88v179.88a28,28,0,0,0,27.47,27.87l625.14,9.09a27.3,27.3,0,0,0,20-8,27.66,27.66,0,0,0,8.31-19.85V1603.87a28,28,0,0,0-27.45-27.87l-625.14-9.51Z"/><path class="cls-11" d="M2432.59,1529.67H2432l-603.91-9.37a36.69,36.69,0,0,1-36-36.52v-140a36.52,36.52,0,0,1,37.34-36.51l603.91,13.52a36.73,36.73,0,0,1,35.7,36.51v135.82a36.51,36.51,0,0,1-36.5,36.52Zm-603.95-212.18a26.34,26.34,0,0,0-26.3,26.32v140a26.44,26.44,0,0,0,25.92,26.32l603.91,9.37a26.33,26.33,0,0,0,26.73-26.32V1357.33a26.47,26.47,0,0,0-25.74-26.31l-603.91-13.52Z"/><path class="cls-12" d="M461.88,730.34l1461.74,39.95a29.43,29.43,0,0,1,28.61,29.41v75a29.41,29.41,0,0,1-29.64,29.42L447.74,893.26a29.42,29.42,0,0,1-29.21-29.42V772.51A42.19,42.19,0,0,1,461.88,730.34Z"/><path class="cls-11" d="M1904.4,878.59h-.25L468.29,872.45c-18.79-.08-33.51-9.62-33.51-21.71v-59a16.84,16.84,0,0,1,5.47-12c6.33-6.24,17.22-9.75,29.13-9.65l1435.87,22.76c18.75.3,32.88,9.63,32.88,21.71v42.36a16.81,16.81,0,0,1-5.38,12C1926.61,875,1916,878.59,1904.4,878.59ZM468.53,780.24c-8.71,0-16.95,2.61-21.13,6.72a6.89,6.89,0,0,0-2.42,4.79v59c0,5.38,10,11.45,23.35,11.51L1904.2,868.4c8.84,0,17.18-2.63,21.36-6.78a6.85,6.85,0,0,0,2.37-4.74V814.52c0-5.27-9.38-11.3-22.84-11.51L469.22,780.24Z"/><path class="cls-13" d="M505.69,855.79,399.53,963.85a10.9,10.9,0,0,0,.77,16l.8.67a10.13,10.13,0,0,0,14.31-1.29L512.62,862Z"/><path class="cls-14" d="M614.73,769.21c16.42,34.4,1.33,75.83-33.7,92.54s-76.72,2.39-93.13-32-1.33-75.83,33.7-92.54S598.32,734.82,614.73,769.21Z"/><path class="cls-15" d="M518.24,730.19c-39,18.6-55.76,64.7-37.49,103s64.66,54.21,103.64,35.61,55.76-64.7,37.49-103S557.22,711.59,518.24,730.19Zm61.29,128.4c-33.25,15.87-72.84,2.27-88.42-30.38s-1.26-72,32-87.84,72.84-2.27,88.42,30.38S612.78,842.73,579.53,858.59Z"/><path class="cls-16" d="M1815,1422H1448.35C1361,1422,1290,1351,1290,1263.62v-46.93c0-87.34,71.06-158.4,158.4-158.4H1815c87.34,0,158.39,71.06,158.39,158.4v46.93C1973.4,1351,1902.35,1422,1815,1422ZM1448.35,1117a99.85,99.85,0,0,0-99.74,99.73v46.93a99.85,99.85,0,0,0,99.74,99.73H1815a99.84,99.84,0,0,0,99.73-99.73v-46.93A99.84,99.84,0,0,0,1815,1117Z"/><path class="cls-17" d="M1296.55,1422H929.89c-87.34,0-158.4-71.06-158.4-158.4v-46.93c0-87.34,71.06-158.4,158.4-158.4h366.66c87.34,0,158.4,71.06,158.4,158.4v46.93C1455,1351,1383.89,1422,1296.55,1422Zm26.09-301.6a99.42,99.42,0,0,0-26.09-3.46H929.89a99.84,99.84,0,0,0-99.73,99.73v46.93a99.84,99.84,0,0,0,99.73,99.73h366.66a99.84,99.84,0,0,0,99.73-99.73v-46.93a99.91,99.91,0,0,0-73.64-96.27Z"/><path class="cls-18" d="M1361.19,1168.29a99.78,99.78,0,0,1,87.16-51.33H1815a99.78,99.78,0,0,1,87.15,51.33h63.67c-20.5-63.74-80.36-110-150.82-110H1448.35c-70.47,0-130.33,46.26-150.83,110Z"/><path class="cls-19" d="M1264.25,1629.5c1,3.29-10.93,8.29-18-5.14-.25-6.44-4.17-34-.32-39.26,20.49-27.93,60.2-62.94,60.2-62.94,6.72,6.62,1.19,13.13,1.19,13.13l-19.27,20.07c4,7.28,8.94,13.43,11.25,22.24a27,27,0,0,1-2.69,19.87c-3.39,6.09-8,14-12.36,20.21C1276,1629.41,1264.25,1629.5,1264.25,1629.5Z"/><path class="cls-20" d="M1279.65,1568.38l-17.56,14.89-5.51,14.82,15.66,17.36s5.26-29.4,9.17-35.76S1283.29,1570.24,1279.65,1568.38Z"/><path class="cls-21" d="M919.36,2725.65s-4.44,25.12-6.61,50a17.13,17.13,0,0,0,16.38,18.56c33.1,1.38,103.91,4.06,129.32,2.92a5.56,5.56,0,0,0,4.9-7.63h0a12.45,12.45,0,0,0-6.38-6.72L940,2729Z"/><path class="cls-22" d="M915.72,2710.9l3.57,30s20.49,9.53,34.48-1.21l-8.49-33.47Z"/><path class="cls-23" d="M918.4,2146.2c-1.54,7.84-8.26,391.43,32.74,563.33a5.83,5.83,0,0,1-3.42,6.78,101.67,101.67,0,0,1-33.39,6.79,10.05,10.05,0,0,1-10-7.21c-11.72-39.88-67.89-239.71-75.21-430.6-8.19-213.29,0-7.26,0-7.26l4.8-131.85Z"/><path class="cls-24" d="M784.81,2738.75s-7.06,12.68-13.9,46.37a10.45,10.45,0,0,0,9.2,12.51c10.93,1.08,27.76,2.46,41.24,2.37a10.43,10.43,0,0,0,10.31-11.63c-1.49-12.29-6.15-32.47-20.51-48.19Z"/><path class="cls-25" d="M778.61,2700.12l8.33,45.42s8.23,6.13,24.52,1.69l-4-48.87Z"/><path class="cls-26" d="M756.11,2158c-33.53,202.38,7.28,500.21,21,558.5a9.08,9.08,0,0,0,7.34,6.9c6.14,1,16.26,1.85,26.23-1a8.31,8.31,0,0,0,6-7.67c1.85-47.12-1.48-336.44,29.77-450.77a25.92,25.92,0,0,1,10-14.33l60.64-43.12,4.65-69.69Z"/><path class="cls-27" d="M969.8,1774.5c-100.5-1.66-211.39,26.38-211.39,26.38-29.95,174.79-5.24,376.4-5.24,376.4,77.81,20.41,165.57-12.47,165.57-12.47,12.93-73.06,73.27-278.67,73.27-278.67,49.1-6.09,89.55-20.26,122.86-39-25.41-29.45-37.39-66.93-42.59-89.08C1036.75,1769.11,1000.79,1775,969.8,1774.5Z"/><path class="cls-28" d="M1266.64,1626.47c-9.87-11.92-22.36-6.28-22.36-6.28-14.79,62.47-92.34,113.12-172,137.88,5.2,22.15,17.18,59.63,42.59,89.08C1247.08,1772.81,1266.64,1626.47,1266.64,1626.47Z"/><path class="cls-29" d="M797,1898.19l-38.55-97.31s-93.87,63.78-109.3,144.65c17.73,1.31,50,5.92,81.6,21.87C737.65,1929.22,797,1898.19,797,1898.19Z"/><path class="cls-30" d="M868,1692.91l-32,92.47a3.34,3.34,0,0,0,1.52,4c8.72,4.82,40.12,18.75,78-5.24a15.7,15.7,0,0,0,7.22-11.21l10.36-80Z"/><path class="cls-31" d="M937.58,1607.28s35.11,66.09,30.61,92.79-48,24.79-86,3.1l-26.55-71.37Z"/><path class="cls-32" d="M883.85,1668.12a2.73,2.73,0,0,0,1.19-4c-2.81-4.29-8.09-13.06-9.77-20.74,0,0-6.31-4,16.07-9.4s55.75-13.67,62.76-32.72c6.84-18.57-11.13-65.27-39.8-28.06a2.71,2.71,0,0,1-4.31,0c-4.7-6.12-17.06-18.81-34.21-11.11-16.06,7.2-17.86,19-17.64,24.89a2.71,2.71,0,0,1-3.21,2.77c-8.12-1.54-27.6-2.87-36.69,17.11-7.48,16.45-2.62,25.77,1.81,30.33a2.71,2.71,0,0,1-1.16,4.5c-5.33,1.64-12.22,6.16-11.53,18.66.95,17.27,20.27,15.75,25.77,15a2.74,2.74,0,0,1,2.42.86c4.71,5.22,26,27.38,49,30a2.75,2.75,0,0,0,2.89-3.63l-9.95-28.93a2.73,2.73,0,0,1,1.47-3.39Z"/><path class="cls-33" d="M887.85,1672.23s-25-17.16-26.83-2.71,22.52,20.92,34.57,15.54Z"/><path class="cls-34" d="M730.71,1967.4s-32.81,148-3.09,231.23c-36.44,16.89-29.7,13.71-29.7,13.71s-72.08-210.6-48.81-266.81C695,1940.66,717.74,1953,730.71,1967.4Z"/><path class="cls-35" d="M727.62,2198.63s18.77,24.3,17.27,34-1.86,13.62-1.86,13.62-9.43-6.45-8.84-14.7c1.31,26.17,10.07,55.92,2.11,54.49s-49.19-39.43-39.87-79.94C717.58,2191.38,723.51,2193,727.62,2198.63Z"/><g class="cls-36"><path class="cls-37" d="M1694.51,2772.73c-154.62,14.27-303-21.82-432.48-208.95C1262,2563.78,1633.57,2476.56,1694.51,2772.73Z"/><path class="cls-11" d="M1606.78,2723.32a2.91,2.91,0,0,1-2.22-1c-87.27-102.86-282.5-136.06-284.47-136.38a2.92,2.92,0,0,1-2.4-3.35,2.87,2.87,0,0,1,3.35-2.4c2,.32,199.33,33.88,288,138.36a2.93,2.93,0,0,1-2.23,4.81Z"/></g><g class="cls-38"><path class="cls-39" d="M1716.74,2781.62c-220-109.21-389.71-281-408.64-640.46C1308.1,2141.16,1880.68,2332.32,1716.74,2781.62Z"/><path class="cls-11" d="M1681.16,2701a2.93,2.93,0,0,1-2.76-1.95c-100-285-293.86-450-295.81-451.61a2.92,2.92,0,1,1,3.75-4.47c2,1.65,197,167.53,297.57,454.15a2.91,2.91,0,0,1-2.75,3.88Z"/></g><path class="cls-40" d="M1721.45,1567.19a61.27,61.27,0,0,0-56.16,60.7c-1.35,194-5,863,6.7,1099.86a47.59,47.59,0,0,0,46.84,45.26c124.25,1.84,481.64,5.76,684.6-6.39a80.14,80.14,0,0,0,75.42-79.75c.58-203.58-.33-776.11-27.15-1037.92a65.39,65.39,0,0,0-59.75-58.52C2256.48,1579.31,1896.72,1552.67,1721.45,1567.19Z"/><path class="cls-41" d="M1716.82,1687.23c-4,158.91-15.9,687.53-5.62,882.74a55.29,55.29,0,0,0,53,52.38c117.54,4.77,419,14.54,591-2.33a62.13,62.13,0,0,0,56-59.65c5.83-162.15,22.1-654.47,12.14-847.49a61.07,61.07,0,0,0-56.66-57.74c-127.24-9.14-454-30.44-600.19-19.84A53.4,53.4,0,0,0,1716.82,1687.23Z"/><path class="cls-42" d="M1749.26,1723.31c-3.49,145.28-14,628.58-4.75,807.06,1.36,26.09,21.9,46.83,47.48,47.9,105.32,4.4,375.41,13.43,529.49-1.93,27.75-2.77,49.14-26.09,50.13-54.52,5.18-148.25,19.59-598.35,10.6-774.83-1.43-28.16-23.23-50.78-50.78-52.81-114-8.39-406.76-28-537.76-18.34C1769.08,1677.65,1749.86,1698.15,1749.26,1723.31Z"/><path class="cls-43" d="M1971.71,1596.6h0a11.16,11.16,0,0,0,10.77,11c29.36,1,112.06,3.88,149,5.37a11.18,11.18,0,0,0,11.38-13.49l-.26-1.22a11.17,11.17,0,0,0-10.11-8.84c-25-1.84-100.43-6.84-150.29-4.17A11.16,11.16,0,0,0,1971.71,1596.6Z"/><path class="cls-12" d="M2279.67,2349.41l-449.74-5.3a61.6,61.6,0,0,1-60.85-62.92l10.48-483.32a61.59,61.59,0,0,1,62.38-60.25l446.61,5.85a61.58,61.58,0,0,1,60.78,62.52L2342,2288.76A61.59,61.59,0,0,1,2279.67,2349.41Z"/><path class="cls-11" d="M2076.66,2202.75c-69.45,1.24-126.83-52.48-128-119.75s54.21-123.14,123.53-124.38,126.82,52.48,128,119.75v.13C2201.39,2145.77,2146,2201.51,2076.66,2202.75Zm-4.24-236.92c-65.35,1.16-117.5,53.61-116.36,116.91s55.11,114,120.33,112.81,117.5-53.62,116.37-116.91v-.13C2191.63,2015.21,2137.65,1964.66,2072.42,1965.83Z"/><path class="cls-11" d="M2040.83,2142.61a6.42,6.42,0,0,1-6.62-6l-4.9-107.71a10,10,0,0,1,4.58-8.87,10.7,10.7,0,0,1,10.18-.89l110.58,47.83a10,10,0,0,1,.82,18.19L2059.53,2137a6.61,6.61,0,0,1-8.85-2.44,6.22,6.22,0,0,1,2.53-8.6l91.49-49.43-102.2-44.2,4.72,103.73a6.4,6.4,0,0,1-6.21,6.6Z"/></g></g></g></svg>