<svg xmlns="http://www.w3.org/2000/svg" viewBox="0 0 86.77 346.1"><defs><style>.cls-1{fill:#f15a24;}</style></defs><g id="Layer_2" data-name="Layer 2"><g id="Layer_1-2" data-name="Layer 1"><path class="cls-1" d="M84.77,0q1,173,2,346h-1a60,60,0,0,1-7,0c-32.08-1.92-67.31-30.69-66-54.48,1.46-26.59,47.32-33.66,46-55.49-1.24-20.47-40.44-22.41-41-43.38s18.67-29,32-49.44c11.16-17.15-19.84-21.26-33-40.35C4.28,84.74.76,73.57.1,65.23-.75,54.49,4,46.29,5.77,43c3.68-6.79,9.82-13.83,29-24A218,218,0,0,1,84.77,0Z"/></g></g></svg>